<?xml version="1.0" encoding="utf-8"?>
<!-- Generator: Adobe Illustrator 27.8.1, SVG Export Plug-In . SVG Version: 6.00 Build 0)  -->
<svg version="1.1" id="Layer_1" xmlns="http://www.w3.org/2000/svg" xmlns:xlink="http://www.w3.org/1999/xlink" x="0px" y="0px"
	 viewBox="0 0 612 792" style="enable-background:new 0 0 612 792;" xml:space="preserve">
<style type="text/css">
	.st0{fill:#E63F25;stroke:#000000;stroke-miterlimit:10;}
	.st1{fill:none;stroke:#000000;stroke-miterlimit:10;}
	.st2{fill:url(#SVGID_1_);stroke:#000000;stroke-miterlimit:10;}
	.st3{fill:url(#SVGID_00000181081712075327118560000010344222325862678201_);stroke:#000000;stroke-miterlimit:10;}
	.st4{fill:url(#SVGID_00000135658368923434446730000015510427425599077531_);stroke:#000000;stroke-miterlimit:10;}
	.st5{fill:url(#SVGID_00000079475838431112952080000004202169467201686715_);stroke:#000000;stroke-miterlimit:10;}
	.st6{fill:url(#SVGID_00000031169744056036947310000003276331185085462673_);stroke:#000000;stroke-miterlimit:10;}
	.st7{fill:url(#SVGID_00000014616532383004025990000007269671083485244049_);stroke:#000000;stroke-miterlimit:10;}
	.st8{fill:url(#SVGID_00000005960473233483623350000017120630805544661429_);stroke:#000000;stroke-miterlimit:10;}
	.st9{fill:url(#SVGID_00000072982586379057514050000004456782160745854597_);stroke:#000000;stroke-miterlimit:10;}
	.st10{fill:url(#SVGID_00000163060608150748864290000016986268932763045018_);stroke:#000000;stroke-miterlimit:10;}
	.st11{fill:#00AEEF;}
	.st12{font-family:'MyriadPro-Regular';}
	.st13{font-size:36px;}
	.st14{fill:#92278F;}
	.st15{fill:#662D91;}
	.st16{fill:none;}
</style>
<path class="st0" d="M171.5,134.89"/>
<path class="st0" d="M542.98,163.66"/>
<path class="st1" d="M170.69,159.1"/>
<path class="st1" d="M334.25,159.1"/>
<line class="st0" x1="542.71" y1="159.09" x2="544.25" y2="159.09"/>
<path class="st0" d="M392.76,159.09"/>
<line class="st1" x1="334.25" y1="159.1" x2="334.25" y2="159.09"/>
<path class="st1" d="M594.73,122.66"/>
<g>
	<linearGradient id="SVGID_1_" gradientUnits="userSpaceOnUse" x1="167.4798" y1="421.1216" x2="377.8644" y2="421.1216">
		<stop  offset="0" style="stop-color:#2484C6"/>
		<stop  offset="1" style="stop-color:#2484C6;stop-opacity:0"/>
	</linearGradient>
	<path class="st2" d="M365.74,572.1c-23.28,34.6-71.55,38.13-100.41,40.24c-41.09,2.99-75.26-6.9-97.86-16.18
		c53.63,8.83,103.85-6.69,127.59-40.43c4.15-5.9,7.22-11.97,9.45-17.95c3.51-9.37,4.98-18.53,5.42-26.54V229.38l58.71-0.01
		l6.64,278.27C377.86,519.02,382.43,547.29,365.74,572.1z"/>
	
		<linearGradient id="SVGID_00000028293710858779223360000008494742713592362896_" gradientUnits="userSpaceOnUse" x1="114.2172" y1="204.2485" x2="555.7568" y2="204.2485">
		<stop  offset="0" style="stop-color:#2484C6"/>
		<stop  offset="1" style="stop-color:#2484C6;stop-opacity:0"/>
	</linearGradient>
	
		<rect x="114.22" y="179.12" style="fill:url(#SVGID_00000028293710858779223360000008494742713592362896_);stroke:#000000;stroke-miterlimit:10;" width="441.54" height="50.25"/>
	
		<linearGradient id="SVGID_00000148633183957225569950000012289597677517690253_" gradientUnits="userSpaceOnUse" x1="148.9897" y1="160.1128" x2="199.6877" y2="160.1128">
		<stop  offset="0" style="stop-color:#2484C6"/>
		<stop  offset="1" style="stop-color:#2484C6;stop-opacity:0"/>
	</linearGradient>
	
		<polygon style="fill:url(#SVGID_00000148633183957225569950000012289597677517690253_);stroke:#000000;stroke-miterlimit:10;" points="
		199.69,164.1 182.38,167.79 175.82,183.19 166.71,168.97 148.99,167.91 160.67,155.44 156.27,139.4 172.6,145.9 187.6,137.04 
		186.02,153.53 	"/>
	
		<linearGradient id="SVGID_00000040562744793299472230000009591352801779795371_" gradientUnits="userSpaceOnUse" x1="467.2476" y1="160.1128" x2="507.5826" y2="160.1128">
		<stop  offset="0" style="stop-color:#2484C6"/>
		<stop  offset="1" style="stop-color:#2484C6;stop-opacity:0"/>
	</linearGradient>
	
		<polygon style="fill:url(#SVGID_00000040562744793299472230000009591352801779795371_);stroke:#000000;stroke-miterlimit:10;" points="
		467.25,160.11 480.53,154 482.65,140.34 492.99,150.22 507.58,147.89 500.69,160.11 507.58,172.34 492.99,170 482.65,179.89 
		480.53,166.22 	"/>
	
		<linearGradient id="SVGID_00000145031431347732897460000003518410014577484447_" gradientUnits="userSpaceOnUse" x1="313.4013" y1="97.5942" x2="356.1567" y2="97.5942">
		<stop  offset="0" style="stop-color:#2484C6"/>
		<stop  offset="1" style="stop-color:#2484C6;stop-opacity:0"/>
	</linearGradient>
	
		<polygon style="fill:url(#SVGID_00000145031431347732897460000003518410014577484447_);stroke:#000000;stroke-miterlimit:10;" points="
		322.32,116.74 324.4,102.95 313.4,93.53 328.11,91.12 334.31,78.45 341.32,90.75 356.16,92.34 345.78,102.35 348.74,116 
		335.32,109.89 	"/>
</g>
<linearGradient id="SVGID_00000142167430045419495200000012694513375808893840_" gradientUnits="userSpaceOnUse" x1="195.1043" y1="329.0305" x2="237.7169" y2="329.0305">
	<stop  offset="0" style="stop-color:#2484C6"/>
	<stop  offset="1" style="stop-color:#2484C6;stop-opacity:0"/>
</linearGradient>
<polygon style="fill:url(#SVGID_00000142167430045419495200000012694513375808893840_);stroke:#000000;stroke-miterlimit:10;" points="
	203.99,349.49 206.07,334.75 195.1,324.69 209.76,322.11 215.95,308.57 222.93,321.71 237.72,323.41 227.37,334.12 230.33,348.7 
	216.95,342.17 "/>
<linearGradient id="SVGID_00000032647400603200000550000001837228573278028453_" gradientUnits="userSpaceOnUse" x1="433.2176" y1="329.0305" x2="475.8303" y2="329.0305">
	<stop  offset="0" style="stop-color:#2484C6"/>
	<stop  offset="1" style="stop-color:#2484C6;stop-opacity:0"/>
</linearGradient>
<polygon style="fill:url(#SVGID_00000032647400603200000550000001837228573278028453_);stroke:#000000;stroke-miterlimit:10;" points="
	442.11,349.49 444.18,334.75 433.22,324.69 447.88,322.11 454.06,308.57 461.04,321.71 475.83,323.41 465.49,334.12 468.44,348.7 
	455.07,342.17 "/>
<linearGradient id="SVGID_00000014625214665948605060000015075848357732321696_" gradientUnits="userSpaceOnUse" x1="472.3678" y1="633.338" x2="514.9805" y2="633.338">
	<stop  offset="0" style="stop-color:#2484C6"/>
	<stop  offset="1" style="stop-color:#2484C6;stop-opacity:0"/>
</linearGradient>
<polygon style="fill:url(#SVGID_00000014625214665948605060000015075848357732321696_);stroke:#000000;stroke-miterlimit:10;" points="
	481.26,653.8 483.33,639.06 472.37,629 487.03,626.42 493.21,612.88 500.19,626.02 514.98,627.72 504.64,638.42 507.59,653.01 
	494.22,646.48 "/>
<linearGradient id="SVGID_00000018934462228465554170000000807464923230649484_" gradientUnits="userSpaceOnUse" x1="127.6834" y1="648.1404" x2="170.2961" y2="648.1404">
	<stop  offset="0" style="stop-color:#2484C6"/>
	<stop  offset="1" style="stop-color:#2484C6;stop-opacity:0"/>
</linearGradient>
<polygon style="fill:url(#SVGID_00000018934462228465554170000000807464923230649484_);stroke:#000000;stroke-miterlimit:10;" points="
	136.57,668.6 138.65,653.86 127.68,643.8 142.34,641.22 148.53,627.68 155.51,640.82 170.3,642.52 159.95,653.22 162.91,667.81 
	149.53,661.28 "/>
<text transform="matrix(1 0 0 1 329.0625 296.6928)" class="st11 st12 st13">U</text>
<text transform="matrix(1 0 0 1 331.7627 349.491)" class="st14 st12 st13">s</text>
<text transform="matrix(1 0 0 1 335.7617 397.6777)" class="st11 st12 st13">t</text>
<text transform="matrix(1 0 0 1 335.7617 444.6578)" class="st15 st12 st13">i</text>
<text transform="matrix(1 0 0 1 330.9053 487.4766)" class="st11 st12 st13">N</text>
<rect x="527.42" y="453.33" class="st16" width="2.1" height="0"/>
</svg>
